<svg id="Redox_ordered" data-name="Redox ordered" xmlns="http://www.w3.org/2000/svg" viewBox="0 0 612 362.8"><defs><style>.cls-1,.cls-2,.cls-20,.cls-22,.cls-71,.cls-73,.cls-74{fill:none;stroke-miterlimit:10;stroke-width:0.44px;}.cls-1{stroke:#d1d3d4;}.cls-2{stroke:#bcbec0;stroke-dasharray:1.76;}.cls-3,.cls-7{font-size:8.78px;}.cls-14,.cls-3,.cls-5,.cls-7{fill:#bcbec0;}.cls-10,.cls-13,.cls-14,.cls-15,.cls-16,.cls-17,.cls-3,.cls-30,.cls-32,.cls-33,.cls-34,.cls-36,.cls-37,.cls-38,.cls-39,.cls-4,.cls-40,.cls-43,.cls-45,.cls-46,.cls-47,.cls-49,.cls-5,.cls-53,.cls-55,.cls-56,.cls-59,.cls-62,.cls-7,.cls-72,.cls-8,.cls-9{font-family:Helvetica, Helvetica;}.cls-4{font-size:12.29px;}.cls-13,.cls-14,.cls-37,.cls-43,.cls-45,.cls-46,.cls-5,.cls-56,.cls-59,.cls-62,.cls-8,.cls-9{font-size:7.02px;}.cls-6{letter-spacing:-0.05em;}.cls-7{letter-spacing:-0.02em;}.cls-13,.cls-30,.cls-32,.cls-33,.cls-34,.cls-36,.cls-37,.cls-38,.cls-39,.cls-40,.cls-49,.cls-60,.cls-63,.cls-64,.cls-65,.cls-8,.cls-9{fill:#231f20;}.cls-23,.cls-59,.cls-62,.cls-9{letter-spacing:0em;}.cls-10,.cls-16,.cls-17,.cls-33,.cls-34,.cls-36{font-size:5.27px;}.cls-10{fill:#939598;}.cls-11{letter-spacing:-0.07em;}.cls-12,.cls-13{letter-spacing:0em;}.cls-14{letter-spacing:-0.04em;}.cls-15,.cls-38,.cls-39,.cls-40,.cls-72{font-size:5.27px;}.cls-16,.cls-44,.cls-45,.cls-46,.cls-62,.cls-70{fill:#346fb7;}.cls-17,.cls-43,.cls-47,.cls-58,.cls-59{fill:#6eb8e6;}.cls-18{letter-spacing:-0.02em;}.cls-19{letter-spacing:-0.02em;}.cls-20{stroke:#231f20;}.cls-21{letter-spacing:0em;}.cls-22{stroke:#d55127;}.cls-24{letter-spacing:-0.07em;}.cls-25{letter-spacing:-0.05em;}.cls-26{letter-spacing:-0.02em;}.cls-27{letter-spacing:-0.11em;}.cls-28{letter-spacing:0em;}.cls-29{letter-spacing:-0.09em;}.cls-30,.cls-32,.cls-47,.cls-49{font-size:7.02px;}.cls-31,.cls-49{letter-spacing:0em;}.cls-32{letter-spacing:0em;}.cls-34{letter-spacing:0em;}.cls-35,.cls-36{letter-spacing:0em;}.cls-37,.cls-60,.cls-61{letter-spacing:0em;}.cls-39{letter-spacing:0em;}.cls-40,.cls-41{letter-spacing:0em;}.cls-42{letter-spacing:-0.05em;}.cls-45{letter-spacing:0em;}.cls-48,.cls-65{letter-spacing:-0.05em;}.cls-50{letter-spacing:-0.02em;}.cls-51,.cls-70{letter-spacing:0em;}.cls-52{letter-spacing:-0.05em;}.cls-53{font-size:7px;}.cls-54{font-size:5px;}.cls-55{font-size:10px;}.cls-57{letter-spacing:-0.07em;}.cls-64{letter-spacing:0em;}.cls-66{letter-spacing:-0.02em;}.cls-67{letter-spacing:-0.05em;}.cls-68{letter-spacing:0em;}.cls-69{letter-spacing:-0.05em;}.cls-71{stroke:#000;}.cls-72{fill:#e9e72e;}.cls-73,.cls-74{stroke:#e9e72e;}.cls-73{stroke-dasharray:1.76;}</style></defs><title>revised-redox-tower</title><line class="cls-1" x1="73.08" y1="84.95" x2="605.9" y2="84.95"/><line class="cls-1" x1="73.08" y1="101.11" x2="605.9" y2="101.11"/><line class="cls-1" x1="73.08" y1="68.41" x2="605.9" y2="68.41"/><line class="cls-1" x1="73.08" y1="117.52" x2="605.9" y2="117.52"/><line class="cls-1" x1="73.08" y1="133.92" x2="605.9" y2="133.92"/><line class="cls-1" x1="73.29" y1="150.33" x2="605.9" y2="150.33"/><line class="cls-1" x1="73.08" y1="166.73" x2="605.9" y2="166.73"/><line class="cls-1" x1="73.08" y1="199.54" x2="557.87" y2="199.54"/><line class="cls-1" x1="87.72" y1="68.48" x2="87.72" y2="199.83"/><line class="cls-1" x1="147.19" y1="68.48" x2="147.19" y2="199.83"/><line class="cls-1" x1="206.66" y1="68.48" x2="206.66" y2="199.83"/><line class="cls-1" x1="266.13" y1="68.48" x2="266.13" y2="199.83"/><line class="cls-1" x1="325.6" y1="68.48" x2="325.6" y2="199.83"/><line class="cls-1" x1="385.07" y1="68.48" x2="385.07" y2="199.83"/><line class="cls-1" x1="444.54" y1="68.48" x2="444.54" y2="199.83"/><line class="cls-1" x1="444.54" y1="67.98" x2="444.54" y2="199.32"/><line class="cls-1" x1="504.01" y1="67.98" x2="504.01" y2="199.32"/><line class="cls-1" x1="504.01" y1="68.85" x2="504.01" y2="200.2"/><line class="cls-1" x1="563.49" y1="68.85" x2="563.49" y2="200.2"/><line class="cls-1" x1="73.08" y1="183.14" x2="605.9" y2="183.14"/><line class="cls-1" x1="73.08" y1="199.54" x2="605.9" y2="199.54"/><line class="cls-2" x1="74.22" y1="153.99" x2="606.9" y2="153.99"/><line class="cls-2" x1="73.29" y1="132.65" x2="605.98" y2="132.65"/><line class="cls-2" x1="73.15" y1="83.4" x2="605.84" y2="83.4"/><line class="cls-2" x1="73.15" y1="79.86" x2="605.84" y2="79.86"/><text class="cls-3" transform="translate(46.8 86.58)">-1000</text><text class="cls-3" transform="translate(48.1 69.86)">-1500</text><text class="cls-3" transform="translate(51.06 103.02)">-500</text><text class="cls-3" transform="translate(62.61 119.45)">0</text><text class="cls-3" transform="translate(45.23 152.32)">+1000</text><text class="cls-3" transform="translate(46.52 168.76)">+1500</text><text class="cls-3" transform="translate(49.54 135.89)">+500</text><text class="cls-3" transform="translate(44.22 185.19)">+2000</text><text class="cls-3" transform="translate(44.22 201.6)">+2500</text><text class="cls-4" transform="translate(14.71 24.09)">Redox couples and potentials (mV) for elements common in biology at pH 7 and temperature 25 C *</text><text class="cls-5" transform="translate(14.71 35.76)">Redox potential indicates the propensity for a compound to transfer electrons to another compound.<tspan class="cls-6" x="309.57" y="0" xml:space="preserve"> A</tspan><tspan x="315.44" y="0" xml:space="preserve"> more-negative redox potential means a compound is more likely to donate electrons (e-). </tspan><tspan x="0" y="8.43">All of life gets its energy by capturing the change in potential energy from the transfer of electrons from the reducing compound to the oxidizing compound.</tspan></text><text class="cls-3" transform="translate(560.13 60.81)">O</text><text class="cls-3" transform="translate(204.2 60.81)">C</text><text class="cls-3" transform="translate(143.65 60.81)">H</text><text class="cls-3" transform="translate(441.69 60.81)">N</text><text class="cls-7" transform="translate(86.28 60.81)">P</text><text class="cls-3" transform="translate(263.94 60.81)">S</text><text class="cls-3" transform="translate(321.27 60.81)">Se</text><text class="cls-3" transform="translate(499.93 60.81)">Cl</text><text class="cls-3" transform="translate(366.55 60.81)">Metal(oid)s</text><text class="cls-8" transform="translate(567.4 144.87)">O</text><text class="cls-8" transform="translate(572.87 147.21) scale(0.58)">2</text><text class="cls-8" transform="translate(575.14 144.87)"><tspan xml:space="preserve">  / 2 H</tspan></text><text class="cls-8" transform="translate(593.88 147.21) scale(0.58)">2</text><text class="cls-8" transform="translate(596.15 144.87)">O</text><text class="cls-8" transform="translate(567.4 178.51)">H</text><text class="cls-9" transform="translate(572.48 180.85) scale(0.58)">2</text><text class="cls-8" transform="translate(574.75 178.51)">O</text><text class="cls-8" transform="translate(580.22 180.85) scale(0.58)">2</text><text class="cls-8" transform="translate(582.49 178.51)"><tspan xml:space="preserve">  / 2 H</tspan></text><text class="cls-8" transform="translate(601.22 180.85) scale(0.58)">2</text><text class="cls-8" transform="translate(603.5 178.51)">O</text><text class="cls-10" transform="translate(551.21 145.1)">+815</text><text class="cls-10" transform="translate(490.59 146.86)">+788</text><text class="cls-10" transform="translate(489.28 157.41)">+<tspan class="cls-11" x="3.08" y="0">1</tspan><tspan x="5.62" y="0">199</tspan></text><text class="cls-10" transform="translate(490.17 141.89)">+709</text><text class="cls-10" transform="translate(74.58 92.04)">-740</text><text class="cls-10" transform="translate(74.58 101.36)">-650</text><text class="cls-10" transform="translate(74.58 97.4)">-660</text><text class="cls-8" transform="translate(507.84 149.26)">ClO</text><text class="cls-8" transform="translate(519.93 151.6) scale(0.58)">4<tspan x="3.91" y="-8.02">-</tspan></text><text class="cls-8" transform="translate(523.57 149.26)"><tspan xml:space="preserve"> / ClO</tspan></text><text class="cls-8" transform="translate(541.52 151.6) scale(0.58)">3<tspan x="3.91" y="-8.02">-</tspan></text><text class="cls-8" transform="translate(507.84 142.09)">ClO</text><text class="cls-8" transform="translate(519.93 144.43) scale(0.58)">3<tspan x="3.91" y="-8.02">-</tspan></text><text class="cls-8" transform="translate(523.57 142.09)"><tspan xml:space="preserve"> / ClO</tspan></text><text class="cls-8" transform="translate(541.52 144.43) scale(0.58)">2<tspan x="3.91" y="-8.02">-</tspan></text><text class="cls-8" transform="translate(92.37 88.88)">HPO</text><text class="cls-8" transform="translate(107.58 91.22) scale(0.58)">3<tspan class="cls-12" x="3.91" y="-8.02">2-</tspan></text><text class="cls-8" transform="translate(113.5 88.88)"><tspan xml:space="preserve"> / H</tspan></text><text class="cls-8" transform="translate(124.43 91.22) scale(0.58)">2</text><text class="cls-8" transform="translate(126.7 88.88)">PO</text><text class="cls-8" transform="translate(136.85 91.22) scale(0.58)">2<tspan x="3.91" y="-8.02">-</tspan></text><text class="cls-8" transform="translate(92.37 97.4)">H</text><text class="cls-8" transform="translate(97.44 99.73) scale(0.58)">2</text><text class="cls-8" transform="translate(99.71 97.4)">PO</text><text class="cls-8" transform="translate(109.86 99.73) scale(0.58)"><tspan class="cls-12">2</tspan><tspan x="3.9" y="-8.02">-</tspan></text><text class="cls-8" transform="translate(113.5 97.4)"><tspan xml:space="preserve"> / PH</tspan></text><text class="cls-13" transform="translate(129.11 99.73) scale(0.58)">3</text><text class="cls-5" transform="translate(10.87 85.14)">Donates e-</text><text class="cls-5" transform="translate(51.65 119.45)">E</text><text class="cls-5" transform="translate(56.33 117.11) scale(0.58)">o</text><text class="cls-14" transform="translate(58.61 119.45)">’</text><text class="cls-5" transform="translate(18.62 97.14)">e-</text><text class="cls-15" transform="translate(22.28 266.72)">e-</text><text class="cls-16" transform="translate(64.62 249.96)">DONOR</text><text class="cls-17" transform="translate(34.06 268.85)">ACCEP<tspan class="cls-18" x="18.15" y="0">T</tspan><tspan x="21.27" y="0">OR</tspan></text><text class="cls-15" transform="translate(104.44 276.94)">e-</text><text class="cls-15" transform="translate(110.19 249.97)">PRODUC<tspan class="cls-19" x="22.84" y="0">T</tspan></text><text class="cls-15" transform="translate(123.65 293.04)">PRODUC<tspan class="cls-19" x="22.84" y="0">T</tspan></text><text class="cls-15" transform="translate(188.93 262.18)">e-</text><text class="cls-15" transform="translate(266 259.84)">e-</text><text class="cls-15" transform="translate(351.83 269.51)">e-</text><text class="cls-15" transform="translate(351.83 286.48)">e-</text><text class="cls-5" transform="translate(10.91 116.08)">Accepts e-</text><text class="cls-8" transform="translate(92.37 105.94)">PO</text><text class="cls-8" transform="translate(102.51 108.28) scale(0.58)">4<tspan class="cls-12" x="3.91" y="-8.02">3-</tspan></text><text class="cls-8" transform="translate(108.43 105.94)"><tspan xml:space="preserve">  / HPO</tspan></text><text class="cls-8" transform="translate(131.45 108.28) scale(0.58)">3<tspan class="cls-12" x="3.91" y="-8.02">2-</tspan></text><text class="cls-8" transform="translate(507.96 157.53)">ClO</text><text class="cls-8" transform="translate(520.05 159.87) scale(0.58)">2<tspan x="3.91" y="-8.02">-</tspan></text><text class="cls-8" transform="translate(523.69 157.53)"><tspan xml:space="preserve"> / Cl</tspan></text><text class="cls-8" transform="translate(536.18 155.19) scale(0.58)">-</text><circle class="cls-20" cx="563.49" cy="144.35" r="1.61"/><text class="cls-8" transform="translate(567 114.17)">O</text><text class="cls-8" transform="translate(572.46 116.51) scale(0.58)">2</text><text class="cls-8" transform="translate(574.74 114.17)"><tspan xml:space="preserve">  / O</tspan></text><text class="cls-8" transform="translate(588.01 116.51) scale(0.58)">2<tspan class="cls-21" x="3.91" y="-8.02">•–</tspan></text><text class="cls-10" transform="translate(551.33 113.51)">-160</text><circle class="cls-22" cx="563.49" cy="111.9" r="1.61"/><text class="cls-8" transform="translate(567.4 152.48)">O</text><text class="cls-8" transform="translate(572.87 154.82) scale(0.58)">2<tspan x="3.91" y="-8.02">•–</tspan></text><text class="cls-8" transform="translate(578.85 152.48)"><tspan xml:space="preserve"> / H</tspan></text><text class="cls-8" transform="translate(589.78 154.82) scale(0.58)">2</text><text class="cls-8" transform="translate(592.05 152.48)">O</text><text class="cls-8" transform="translate(597.52 154.82) scale(0.58)">2</text><text class="cls-10" transform="translate(549.44 150.08)">+940</text><circle class="cls-22" cx="563.49" cy="149.33" r="1.61"/><text class="cls-10" transform="translate(548.27 176.76)">+1770</text><circle class="cls-20" cx="563.49" cy="176" r="1.61"/><text class="cls-8" transform="translate(567.88 196.49)">OH</text><text class="cls-9" transform="translate(578.41 194.15) scale(0.58)">•</text><text class="cls-8" transform="translate(579.85 196.49)"><tspan xml:space="preserve">  / H</tspan></text><text class="cls-8" transform="translate(592.72 198.83) scale(0.58)">2</text><text class="cls-8" transform="translate(595 196.49)">O</text><text class="cls-10" transform="translate(547.9 194.73)">+2330</text><circle class="cls-22" cx="563.49" cy="193.98" r="1.61"/><text class="cls-8" transform="translate(565.65 129.78)"><tspan xml:space="preserve"> H</tspan></text><text class="cls-8" transform="translate(572.67 132.12) scale(0.58)">2</text><text class="cls-8" transform="translate(574.95 129.78)">O</text><text class="cls-9" transform="translate(580.41 132.12) scale(0.58)">2</text><text class="cls-8" transform="translate(582.69 129.78)"><tspan xml:space="preserve"> / 2OH</tspan></text><text class="cls-8" transform="translate(602.98 127.44) scale(0.58)">•</text><text class="cls-10" transform="translate(549.94 128.9)">+380</text><circle class="cls-22" cx="563.49" cy="128.15" r="1.61"/><circle class="cls-20" cx="504.01" cy="143.47" r="1.61"/><circle class="cls-22" cx="504.01" cy="157.65" r="1.61"/><text class="cls-8" transform="translate(507.96 165.27)">HOCl / Cl</text><text class="cls-8" transform="translate(537.61 162.93) scale(0.58)">-</text><circle class="cls-22" cx="504.01" cy="160.12" r="1.61"/><circle class="cls-22" cx="449.98" cy="205.11" r="1.61"/><text class="cls-10" transform="translate(430.57 132.16)">+433</text><text class="cls-10" transform="translate(430.2 137.13)">+440</text><text class="cls-8" transform="translate(448.55 133.19)">NO</text><text class="cls-8" transform="translate(459.09 135.52) scale(0.58)"><tspan class="cls-23">3</tspan><tspan x="3.91" y="-8.02">-</tspan></text><text class="cls-8" transform="translate(462.73 133.19)"><tspan xml:space="preserve"> / NO</tspan></text><text class="cls-8" transform="translate(479.11 135.52) scale(0.58)">2<tspan x="3.91" y="-8.02">-</tspan></text><circle class="cls-20" cx="444.54" cy="131.54" r="1.61"/><circle class="cls-20" cx="444.54" cy="132.43" r="1.61"/><text class="cls-10" transform="translate(429.45 155.82)">+<tspan class="cls-24" x="3.08" y="0">1</tspan><tspan x="5.62" y="0">180</tspan></text><text class="cls-8" transform="translate(448.55 152.94)">2 NO / N</text><text class="cls-8" transform="translate(475.87 155.28) scale(0.58)">2</text><text class="cls-8" transform="translate(478.14 152.94)">O</text><text class="cls-8" transform="translate(448.55 167.68)">N</text><text class="cls-9" transform="translate(453.62 170.02) scale(0.58)">2</text><text class="cls-8" transform="translate(455.9 167.68)">O / N</text><text class="cls-9" transform="translate(472.29 170.02) scale(0.58)">2</text><circle class="cls-20" cx="444.54" cy="156.33" r="1.61"/><text class="cls-10" transform="translate(429.37 163.68)">+1350</text><text class="cls-10" transform="translate(453.4 206.72)">Reactive oxidants not used in energy metabolism, often toxic</text><text class="cls-5" transform="translate(78.96 207.72)">Not shown: electron carrying cofactors, B<tspan class="cls-25" x="128.02" y="0">r</tspan><tspan x="129.98" y="0">, I,</tspan><tspan class="cls-26" x="137.78" y="0"> </tspan><tspan class="cls-27" x="139.61" y="0">T</tspan><tspan x="143.12" y="0">e,</tspan><tspan class="cls-6" x="148.98" y="0"> </tspan><tspan x="150.54" y="0">Ag,</tspan><tspan class="cls-25" x="161.08" y="0"> </tspan><tspan class="cls-28" x="162.65" y="0">Au, Pd, Hg, C</tspan><tspan class="cls-6" x="205.58" y="0">r</tspan><tspan x="207.54" y="0">, </tspan><tspan class="cls-29" x="211.44" y="0">V</tspan><tspan x="215.48" y="0">, Mo,</tspan><tspan class="cls-26" x="231.09" y="0"> </tspan><tspan class="cls-27" x="232.92" y="0">T</tspan><tspan x="236.43" y="0">c, various Fe minerals, various organics.</tspan></text><text class="cls-10" transform="translate(428.48 158.83)">+1200</text><text class="cls-5" transform="translate(90.68 160.46)">Photosystem II (ground state)</text><text class="cls-5" transform="translate(517.34 77.86)">Photosystem II (excited state)</text><text class="cls-5" transform="translate(90.76 140.29)">Photosystem I (ground state)</text><text class="cls-5" transform="translate(517.34 91.3)">Photosystem I (excited state)</text><circle class="cls-20" cx="444.54" cy="162.18" r="1.61"/><circle class="cls-22" cx="444.54" cy="157.34" r="1.61"/><text class="cls-10" transform="translate(430.63 127.04)">+340</text><text class="cls-8" transform="translate(448.55 125.28)">NO</text><text class="cls-8" transform="translate(459.09 127.62) scale(0.58)"><tspan class="cls-23">2</tspan><tspan x="3.91" y="-8.02">-</tspan></text><text class="cls-8" transform="translate(462.73 125.28)"><tspan xml:space="preserve"> / NO</tspan></text><text class="cls-8" transform="translate(448.55 141.31)">NO</text><text class="cls-8" transform="translate(459.09 143.65) scale(0.58)"><tspan class="cls-23">2</tspan><tspan x="3.91" y="-8.02">-</tspan></text><text class="cls-8" transform="translate(462.73 141.31)"><tspan xml:space="preserve"> / NH</tspan></text><text class="cls-8" transform="translate(478.72 143.65) scale(0.58)">4<tspan x="3.91" y="-8.02">+</tspan></text><circle class="cls-20" cx="444.54" cy="127.3" r="1.61"/><text class="cls-10" transform="translate(431.63 121.75)">+130</text><circle class="cls-20" cx="444.54" cy="122.01" r="1.61"/><text class="cls-10" transform="translate(254.58 102.65)">-516</text><text class="cls-30" transform="translate(270.93 100.07)">SO</text><text class="cls-30" transform="translate(281.07 102.41) scale(0.58)">4<tspan x="3.9" y="-8.02">2-</tspan></text><text class="cls-30" transform="translate(286.99 100.07)"><tspan xml:space="preserve"> / HSO</tspan></text><text class="cls-30" transform="translate(308.05 102.41) scale(0.58)">3<tspan class="cls-31" x="3.9" y="-8.02">-</tspan></text><circle class="cls-20" cx="266.13" cy="100.46" r="1.61"/><text class="cls-10" transform="translate(255.58 119.29)">-60</text><text class="cls-30" transform="translate(270.93 123.17)"><tspan xml:space="preserve">APS  / HSO</tspan></text><text class="cls-30" transform="translate(307.99 125.51) scale(0.58)">3<tspan class="cls-31" x="3.9" y="-8.02">-</tspan></text><circle class="cls-20" cx="266.13" cy="116.49" r="1.61"/><text class="cls-10" transform="translate(254.74 115.53)">-<tspan class="cls-24" x="1.75" y="0">1</tspan><tspan x="4.29" y="0">16</tspan></text><text class="cls-30" transform="translate(270.93 115.5)">HSO</text><text class="cls-30" transform="translate(286.14 117.83) scale(0.58)">3<tspan x="3.9" y="-8.02">-</tspan></text><text class="cls-30" transform="translate(289.78 115.5)"><tspan xml:space="preserve"> / HS</tspan></text><text class="cls-30" transform="translate(305.38 113.16) scale(0.58)">-</text><circle class="cls-20" cx="266.13" cy="114.34" r="1.61"/><text class="cls-10" transform="translate(254.35 110.73)">-275</text><text class="cls-30" transform="translate(270.93 108.72)">S</text><text class="cls-30" transform="translate(275.61 106.39) scale(0.58)">0</text><text class="cls-32" transform="translate(277.89 108.72)"><tspan xml:space="preserve"> / HS</tspan></text><text class="cls-30" transform="translate(293.49 106.39) scale(0.58)">-</text><circle class="cls-20" cx="266.13" cy="109.4" r="1.61"/><text class="cls-10" transform="translate(252.89 125.31)">+160</text><text class="cls-30" transform="translate(270.05 129.79)">DMSO / DMS</text><circle class="cls-20" cx="266.13" cy="123.78" r="1.61"/><text class="cls-10" transform="translate(490.1 133)">+464</text><text class="cls-8" transform="translate(507.44 133.03)">CH</text><text class="cls-8" transform="translate(517.58 135.37) scale(0.58)">3</text><text class="cls-8" transform="translate(519.86 133.03)">Cl / CH</text><text class="cls-8" transform="translate(542.48 135.37) scale(0.58)">4</text><circle class="cls-20" cx="504.01" cy="131.37" r="1.61"/><text class="cls-10" transform="translate(374.54 120.87)">+14</text><text class="cls-10" transform="translate(374.25 115.89)">-40</text><text class="cls-33" transform="translate(388.78 121.78)">Fe(III)(OH)</text><text class="cls-33" transform="translate(414.23 123.53) scale(0.58)">3</text><text class="cls-34" transform="translate(415.94 121.78)"><tspan xml:space="preserve"> / Fe</tspan></text><text class="cls-33" transform="translate(426.47 120.03) scale(0.58)">2+</text><text class="cls-33" transform="translate(388.79 115.5) rotate(0.05)">U(VI)O</text><text class="cls-33" transform="translate(405.17 117.26) rotate(0.05) scale(0.58)">2<tspan class="cls-35" x="2.93" y="-6.02">2+</tspan></text><text class="cls-34" transform="translate(410.38 115.51) rotate(0.05)"><tspan xml:space="preserve"> / U(IV)O</tspan></text><text class="cls-36" transform="translate(431.15 117.29) rotate(0.05) scale(0.58)">2</text><circle class="cls-20" cx="384.96" cy="117.5" r="1.61"/><text class="cls-10" transform="translate(370.5 147.99)">+770</text><text class="cls-33" transform="translate(388.78 149.66)">Fe</text><text class="cls-33" transform="translate(394.93 147.91) scale(0.58)">3+</text><text class="cls-33" transform="translate(398.43 149.66)"><tspan xml:space="preserve"> / Fe</tspan></text><text class="cls-33" transform="translate(408.96 147.91) scale(0.58)">2+ </text><text class="cls-33" transform="translate(413.32 149.66)">(pH 2)</text><circle class="cls-20" cx="384.96" cy="146.38" r="1.61"/><circle class="cls-20" cx="384.96" cy="115.5" r="1.61"/><text class="cls-10" transform="translate(373.18 109.32)">-314</text><text class="cls-33" transform="translate(388.78 107.68)">Fe(III)</text><text class="cls-33" transform="translate(402.82 109.43) scale(0.58)">3</text><text class="cls-33" transform="translate(404.53 107.68)">O</text><text class="cls-33" transform="translate(408.63 109.43) scale(0.58)">4</text><text class="cls-33" transform="translate(410.33 107.68)"><tspan xml:space="preserve"> / Fe</tspan></text><text class="cls-33" transform="translate(420.87 105.93) scale(0.58)">2+</text><circle class="cls-20" cx="384.96" cy="107.71" r="1.61"/><text class="cls-10" transform="translate(371.5 138.02)">+530</text><text class="cls-10" transform="translate(371.02 142.87)">+540</text><text class="cls-10" transform="translate(312.28 124.79)">+210</text><text class="cls-33" transform="translate(388.78 137.02)">Mn(IV)O</text><text class="cls-33" transform="translate(408.68 138.77) scale(0.58)">2</text><text class="cls-33" transform="translate(410.38 137.02)"><tspan xml:space="preserve"> /  Mn</tspan></text><text class="cls-36" transform="translate(423.55 135.27) scale(0.58)">2+</text><circle class="cls-20" cx="384.96" cy="139.29" r="1.61"/><circle class="cls-20" cx="384.96" cy="140.9" r="1.61"/><circle class="cls-20" cx="325.6" cy="123.44" r="1.61"/><text class="cls-10" transform="translate(311.07 134.61)">+480</text><circle class="cls-20" cx="325.6" cy="133" r="1.61"/><text class="cls-10" transform="translate(135.23 104.92)">-414</text><text class="cls-8" transform="translate(151.39 105.8)">2 H</text><text class="cls-8" transform="translate(162.32 103.46) scale(0.58)">+</text><text class="cls-37" transform="translate(164.71 105.8)"><tspan xml:space="preserve"> / H</tspan></text><text class="cls-9" transform="translate(175.63 108.14) scale(0.58)">2</text><circle class="cls-20" cx="147.19" cy="103.31" r="1.61"/><text class="cls-10" transform="translate(192.97 112.36)">-240</text><text class="cls-10" transform="translate(192.97 108.75)">-280</text><text class="cls-38" transform="translate(211.01 112.36)">CO</text><text class="cls-39" transform="translate(218.92 114.12) scale(0.58)">2</text><text class="cls-40" transform="translate(220.62 112.36)"><tspan xml:space="preserve"> / CH</tspan></text><text class="cls-39" transform="translate(232.63 114.12) scale(0.58)">4</text><text class="cls-38" transform="translate(211.01 107.14)">CO</text><text class="cls-39" transform="translate(218.92 108.9) scale(0.58)">2</text><text class="cls-38" transform="translate(220.62 107.14)"><tspan class="cls-41" xml:space="preserve"> /</tspan><tspan class="cls-42" x="2.93" y="0"> </tspan><tspan x="4.1" y="0">Acetate</tspan></text><circle class="cls-20" cx="206.81" cy="109.75" r="1.61"/><circle class="cls-20" cx="206.81" cy="108.75" r="1.61"/><text class="cls-43" transform="translate(462.82 295.35)">Photosystem I (ground state)</text><text class="cls-8" transform="translate(435.54 271.3)">S</text><text class="cls-8" transform="translate(440.23 268.96) scale(0.58)">0</text><text class="cls-8" transform="translate(442.5 271.3)"><tspan xml:space="preserve"> / </tspan><tspan class="cls-44" x="5.85" y="0">HS</tspan></text><text class="cls-45" transform="translate(458.11 268.96) scale(0.58)">-</text><circle class="cls-20" cx="459.27" cy="269.69" r="1.61"/><circle class="cls-20" cx="458.83" cy="292.93" r="1.61"/><text class="cls-46" transform="translate(495.82 260.86)">Photosystem I (excited state)</text><circle class="cls-20" cx="491.82" cy="258.43" r="1.61"/><text class="cls-47" transform="translate(496.21 271.13)">CO</text><text class="cls-47" transform="translate(506.74 273.47) scale(0.58)">2</text><text class="cls-30" transform="translate(509.02 271.13)"><tspan xml:space="preserve"> /</tspan><tspan class="cls-48" x="3.9" y="0"> </tspan><tspan x="5.47" y="0">Acetate</tspan></text><circle class="cls-20" cx="492.01" cy="269.04" r="1.61"/><text class="cls-10" transform="translate(192.97 95.35)">-720</text><text class="cls-33" transform="translate(211.01 95.22)">Pyruvate / Glucose</text><circle class="cls-20" cx="206.81" cy="93.74" r="1.61"/><text class="cls-10" transform="translate(192.97 116.58)">-190</text><text class="cls-33" transform="translate(211.01 117.11)">Pyruvate / Lactate</text><circle class="cls-20" cx="206.81" cy="112.97" r="1.61"/><text class="cls-10" transform="translate(194.66 121.31)">+30</text><text class="cls-33" transform="translate(211.01 121.83)">Fumarate / Succinate</text><circle class="cls-20" cx="206.81" cy="119.01" r="1.61"/><text class="cls-10" transform="translate(192.97 102.71)">-500</text><text class="cls-38" transform="translate(211.01 101.58)">CO</text><text class="cls-39" transform="translate(218.92 103.34) scale(0.58)">2</text><text class="cls-40" transform="translate(220.62 101.58)"><tspan xml:space="preserve">  / Glucose</tspan></text><circle class="cls-20" cx="206.81" cy="101.1" r="1.61"/><circle class="cls-20" cx="87.89" cy="92.91" r="1.61"/><circle class="cls-20" cx="87.89" cy="97.35" r="1.61"/><circle class="cls-20" cx="87.89" cy="95.79" r="1.61"/><circle class="cls-20" cx="504.01" cy="141.86" r="1.61"/><text class="cls-30" transform="translate(329.74 135.26)">SeO</text><text class="cls-30" transform="translate(343.79 137.6) scale(0.58)">4<tspan x="3.9" y="-8.02">2−</tspan></text><text class="cls-30" transform="translate(350.73 135.26)"><tspan xml:space="preserve"> /  SeO</tspan></text><text class="cls-30" transform="translate(372.58 137.6) scale(0.58)"><tspan class="cls-31">3</tspan><tspan x="3.9" y="-8.02">2−</tspan></text><text class="cls-33" transform="translate(388.78 142.98)">HAs(V)O</text><text class="cls-33" transform="translate(409.84 144.73) scale(0.58)">4<tspan x="2.93" y="-6.02">2−</tspan></text><text class="cls-33" transform="translate(415.05 142.98)"><tspan xml:space="preserve"> /  H</tspan></text><text class="cls-36" transform="translate(424.71 144.73) scale(0.58)">3</text><text class="cls-34" transform="translate(426.42 142.98)">As(III)O</text><text class="cls-33" transform="translate(444.56 144.73) scale(0.58)">3</text><text class="cls-30" transform="translate(329.74 125.57)">SeO</text><text class="cls-30" transform="translate(343.79 127.91) scale(0.58)">3<tspan x="3.9" y="-8.02">2−</tspan></text><text class="cls-30" transform="translate(350.73 125.57)"><tspan xml:space="preserve">  /  Se</tspan></text><text class="cls-30" transform="translate(369.07 123.24) scale(0.58)">0</text><text class="cls-10" transform="translate(312.7 94.18)">-730</text><circle class="cls-20" cx="325.6" cy="93.19" r="1.61"/><text class="cls-30" transform="translate(329.74 94.8)">Se</text><text class="cls-49" transform="translate(338.33 92.46) scale(0.58)">0</text><text class="cls-30" transform="translate(340.6 94.8)"><tspan xml:space="preserve"> / HSe</tspan></text><text class="cls-30" transform="translate(360.11 92.46) scale(0.58)">−</text><text class="cls-8" transform="translate(447.67 118.39)">TMAO /<tspan class="cls-50" x="24.19" y="0"> </tspan><tspan class="cls-51" x="26.02" y="0">TM</tspan><tspan class="cls-52" x="36.16" y="0">A</tspan></text><line class="cls-1" x1="26.22" y1="89.33" x2="26.22" y2="106.52"/><polygon class="cls-1" points="25.78 106.14 26.67 106.14 26.22 107.04 25.78 106.14"/><text class="cls-53" transform="translate(106.16 240.99)">Aerobic Respiration</text><text class="cls-53" transform="translate(191 240.99)">Anaerobic Respiration<tspan class="cls-54"><tspan x="0" y="6">Denitrification</tspan></tspan></text><text class="cls-53" transform="translate(268.97 240.99)">Methanogenesis</text><text class="cls-53" transform="translate(347.83 241.34)">Chemolitoautotrophy<tspan class="cls-54"><tspan x="0" y="6">Nitrification (nitrite)</tspan></tspan></text><text class="cls-53" transform="translate(433.58 240.99)">Photolitoautotrophy<tspan class="cls-54"><tspan x="0" y="6">Sulfide oxidation</tspan></tspan></text><text class="cls-53" transform="translate(25.96 240.99)">Fermentation</text><text class="cls-55" transform="translate(14.71 226.83)">Examples of energetically favorable redox metabolisms</text><text class="cls-56" transform="translate(14.71 353.44)">* For teaching purposes onl<tspan class="cls-57" x="85.88" y="0">y</tspan><tspan x="88.88" y="0">. Consult the scientific literature for exact values.</tspan></text><text class="cls-56" transform="translate(440.89 353.44)">Image produced by<tspan class="cls-50" x="60.12" y="0"> </tspan><tspan class="cls-6" x="61.95" y="0">T</tspan><tspan x="65.85" y="0">yler Barnum @tylerbarnumphd</tspan></text><text class="cls-10" transform="translate(200.76 293.04)">933</text><text class="cls-43" transform="translate(210.03 289.43)">NO</text><text class="cls-43" transform="translate(220.57 291.76) scale(0.58)"><tspan class="cls-23">3</tspan><tspan x="3.91" y="-8.02">-</tspan></text><text class="cls-8" transform="translate(224.21 289.43)"><tspan xml:space="preserve"> / NO</tspan></text><text class="cls-8" transform="translate(240.59 291.76) scale(0.58)">2<tspan x="3.91" y="-8.02">-</tspan></text><circle class="cls-20" cx="202.37" cy="286.48" r="1.61"/><text class="cls-10" transform="translate(200.76 305.25)">1680</text><text class="cls-8" transform="translate(203.03 312.88)">2 <tspan class="cls-58" x="5.86" y="0">NO</tspan><tspan x="16.39" y="0" xml:space="preserve"> / N</tspan></text><text class="cls-8" transform="translate(230.34 315.21) scale(0.58)">2</text><text class="cls-8" transform="translate(232.62 312.88)">O</text><text class="cls-43" transform="translate(200.03 320.62)">N</text><text class="cls-59" transform="translate(205.1 322.96) scale(0.58)">2</text><text class="cls-43" transform="translate(207.38 320.62)">O<tspan class="cls-60" x="5.46" y="0" xml:space="preserve"> / N</tspan></text><text class="cls-9" transform="translate(223.76 322.96) scale(0.58)">2</text><circle class="cls-20" cx="198.67" cy="311.27" r="1.61"/><text class="cls-10" transform="translate(191 325.48)">1850</text><circle class="cls-20" cx="195.36" cy="317.12" r="1.61"/><text class="cls-10" transform="translate(208.35 274.79)">840</text><text class="cls-43" transform="translate(210.03 281.98)">NO</text><text class="cls-43" transform="translate(220.57 284.32) scale(0.58)"><tspan class="cls-23">2</tspan><tspan x="3.91" y="-8.02">-</tspan></text><text class="cls-8" transform="translate(224.21 281.98)"><tspan xml:space="preserve"> / NO</tspan></text><circle class="cls-20" cx="205.37" cy="282.24" r="1.61"/><text class="cls-8" transform="translate(276.95 256.99)">2 H</text><text class="cls-8" transform="translate(287.88 254.65) scale(0.58)">+</text><text class="cls-8" transform="translate(290.27 256.99)"><tspan class="cls-61" xml:space="preserve"> / </tspan><tspan class="cls-44" x="5.85" y="0">H</tspan></text><text class="cls-62" transform="translate(301.19 259.33) scale(0.58)">2</text><circle class="cls-20" cx="272.68" cy="255.75" r="1.61"/><text class="cls-10" transform="translate(268.96 269.51)">174</text><text class="cls-47" transform="translate(276.84 265.79)">CO</text><text class="cls-47" transform="translate(287.37 268.12) scale(0.58)">2</text><text class="cls-30" transform="translate(289.65 265.79)"><tspan xml:space="preserve"> / CH</tspan></text><text class="cls-30" transform="translate(305.64 268.12) scale(0.58)">4</text><circle class="cls-20" cx="272.68" cy="262.18" r="1.61"/><text class="cls-10" transform="translate(24.55 282.79)">530</text><text class="cls-30" transform="translate(32.7 257.86)">Pyruvate / <tspan class="cls-44" x="33.55" y="0">Glucose</tspan></text><circle class="cls-20" cx="28.5" cy="256.37" r="1.61"/><text class="cls-47" transform="translate(32.7 277.21)">Pyruvate<tspan class="cls-63" x="27.7" y="0" xml:space="preserve"> / Lactate</tspan></text><circle class="cls-20" cx="28.5" cy="275.6" r="1.61"/><text class="cls-47" transform="translate(362.06 257.88)">CO</text><text class="cls-47" transform="translate(372.59 260.22) scale(0.58)">2</text><text class="cls-47" transform="translate(374.87 257.88)"> <tspan class="cls-64" x="1.95" y="0">/</tspan><tspan class="cls-65" x="3.9" y="0"> </tspan><tspan class="cls-63" x="5.47" y="0">Acetate</tspan></text><circle class="cls-20" cx="357.86" cy="256.67" r="1.61"/><text class="cls-43" transform="translate(362.14 294.34)">O</text><text class="cls-43" transform="translate(367.6 296.68) scale(0.58)">2</text><text class="cls-8" transform="translate(369.88 294.34)"><tspan xml:space="preserve">  / 2 H</tspan></text><text class="cls-8" transform="translate(388.61 296.68) scale(0.58)">2</text><text class="cls-8" transform="translate(390.89 294.34)">O</text><circle class="cls-20" cx="357.97" cy="292.27" r="1.61"/><text class="cls-10" transform="translate(354.49 299.28)">382</text><text class="cls-10" transform="translate(363.51 266.72)">Energy must be spent <tspan x="0" y="6.32">to fix carbon dioxide</tspan></text><text class="cls-10" transform="translate(433.58 308.25)">In phototroph<tspan class="cls-24" x="31.04" y="0">y</tspan><tspan x="33.29" y="0">, light increases the potential for an electron </tspan><tspan x="0" y="6.32">to reduce other compounds. In this case, with light, electrons </tspan><tspan x="0" y="12.64">from sulfide can be used to fix carbon dioxide without spending </tspan><tspan x="0" y="18.96">energ</tspan><tspan class="cls-24" x="13.47" y="18.96">y</tspan><tspan x="15.72" y="18.96">.</tspan><tspan class="cls-18" x="17.18" y="18.96"> </tspan><tspan x="18.55" y="18.96">This also allows di</tspan><tspan class="cls-18" x="61.29" y="18.96">f</tspan><tspan x="62.66" y="18.96">ferent molecules to serve as electron </tspan><tspan x="0" y="25.28">donors.</tspan><tspan class="cls-66" x="17.57" y="25.28"> </tspan><tspan x="18.94" y="25.28">The evolution of photosystem II in cyanobacteria allowed </tspan><tspan x="0" y="31.6">water to be oxidized to oxygen.</tspan></text><text class="cls-10" transform="translate(268.97 278.34)">The small di<tspan class="cls-18" x="28.39" y="0">f</tspan><tspan x="29.76" y="0">ference in redox</tspan><tspan x="0" y="6.32">potentials provides little energ</tspan><tspan class="cls-24" x="69.68" y="6.32">y</tspan><tspan x="71.93" y="6.32">. </tspan></text><text class="cls-10" transform="translate(232.43 320.62)">Denitrification involves several electron<tspan x="0" y="6.32">acceptors with varying redox potentials.</tspan></text><text class="cls-10" transform="translate(113.52 269.99)">Oxygen is an excellent <tspan x="0" y="6.32">electron accepto</tspan><tspan class="cls-67" x="38.65" y="6.32">r</tspan><tspan class="cls-68" x="40.11" y="6.32">. Multicellular </tspan><tspan x="0" y="12.64">life almost always needs oxygen.</tspan></text><text class="cls-10" transform="translate(25.96 294.14)">The electron acceptor <tspan x="0" y="6.32">in fermentation is the </tspan><tspan x="0" y="12.64">partially oxidized electron </tspan><tspan x="0" y="18.96">dono</tspan><tspan class="cls-69" x="11.72" y="18.96">r</tspan><tspan x="13.18" y="18.96">. While often a back-up</tspan><tspan x="0" y="25.28">metabolism, many microbes use </tspan><tspan x="0" y="31.6">only fermentation for energ</tspan><tspan class="cls-24" x="62.95" y="31.6">y</tspan><tspan x="65.19" y="31.6">.</tspan></text><circle class="cls-20" cx="357.97" cy="280.35" r="1.61"/><text class="cls-8" transform="translate(361.97 282.35)">NO</text><text class="cls-8" transform="translate(372.5 284.69) scale(0.58)"><tspan class="cls-23">3</tspan><tspan x="3.91" y="-8.02">-</tspan></text><text class="cls-8" transform="translate(376.14 282.35)"><tspan xml:space="preserve"> / </tspan><tspan class="cls-70" x="5.85" y="0">NO</tspan></text><text class="cls-46" transform="translate(392.53 284.69) scale(0.58)">2<tspan x="3.91" y="-8.02">-</tspan></text><text class="cls-10" transform="translate(344.42 257.86)">-713</text><text class="cls-30" transform="translate(199.24 257.24)">CO</text><text class="cls-30" transform="translate(209.77 259.58) scale(0.58)">2</text><text class="cls-30" transform="translate(212.05 257.24)"><tspan xml:space="preserve">  / </tspan><tspan class="cls-44" x="7.8" y="0">Glucose</tspan></text><circle class="cls-20" cx="195.04" cy="255.63" r="1.61"/><text class="cls-43" transform="translate(114.19 300.62)">O</text><text class="cls-43" transform="translate(119.65 302.96) scale(0.58)">2</text><text class="cls-8" transform="translate(121.93 300.62)"><tspan xml:space="preserve">  / 2 H</tspan></text><text class="cls-8" transform="translate(140.66 302.96) scale(0.58)">2</text><text class="cls-8" transform="translate(142.94 300.62)">O</text><text class="cls-10" transform="translate(106.15 307.25)">1315</text><circle class="cls-20" cx="110.27" cy="299.01" r="1.61"/><text class="cls-30" transform="translate(114.19 257.37)">CO</text><text class="cls-30" transform="translate(124.72 259.71) scale(0.58)">2</text><text class="cls-30" transform="translate(127 257.37)"><tspan xml:space="preserve">  / </tspan><tspan class="cls-44" x="7.8" y="0">Glucose</tspan></text><circle class="cls-20" cx="109.99" cy="255.76" r="1.61"/><line class="cls-71" x1="109.99" y1="260.31" x2="109.99" y2="292.51"/><polygon class="cls-71" points="109.54 292.14 110.43 292.14 109.99 293.04 109.54 292.14"/><line class="cls-71" x1="28.5" y1="260.05" x2="28.5" y2="270.24"/><polygon class="cls-71" points="28.05 269.86 28.94 269.86 28.5 270.76 28.05 269.86"/><line class="cls-71" x1="357.97" y1="276.94" x2="357.97" y2="260.75"/><polygon class="cls-71" points="358.42 261.13 357.53 261.13 357.97 260.23 358.42 261.13"/><line class="cls-71" x1="357.97" y1="284.22" x2="357.97" y2="288.4"/><polygon class="cls-71" points="357.53 288.02 358.42 288.02 357.97 288.93 357.53 288.02"/><text class="cls-15" transform="translate(493.95 264.79)">e-</text><line class="cls-71" x1="491.9" y1="261.63" x2="491.9" y2="265.82"/><polygon class="cls-71" points="491.45 265.44 492.34 265.44 491.9 266.34 491.45 265.44"/><text class="cls-15" transform="translate(452.69 283.01)">e-</text><text class="cls-72" transform="translate(468.44 268.85)">light</text><line class="cls-71" x1="458.83" y1="273.44" x2="458.83" y2="288.63"/><polygon class="cls-71" points="458.39 288.25 459.27 288.25 458.83 289.15 458.39 288.25"/><line class="cls-73" x1="460.88" y1="288.99" x2="488.59" y2="261.29"/><polygon class="cls-74" points="488.63 261.87 488.01 261.24 488.96 260.92 488.63 261.87"/><line class="cls-71" x1="272.68" y1="259.66" x2="272.68" y2="259.84"/><polygon class="cls-71" points="272.23 259.47 273.12 259.47 272.68 260.37 272.23 259.47"/><polyline class="cls-71" points="195.29 258.82 202.04 263.56 202.04 282.72"/><polygon class="cls-71" points="201.6 282.35 202.48 282.35 202.04 283.25 201.6 282.35"/><polyline class="cls-71" points="195.29 258.82 198.67 263.53 198.67 307.73"/><polygon class="cls-71" points="198.22 307.36 199.11 307.36 198.67 308.26 198.22 307.36"/><line class="cls-71" x1="195.29" y1="258.82" x2="195.29" y2="312.74"/><polygon class="cls-71" points="194.85 312.36 195.74 312.36 195.29 313.26 194.85 312.36"/><polyline class="cls-71" points="195.29 258.82 205.41 263.67 205.41 278.71"/><polygon class="cls-71" points="204.97 278.34 205.86 278.34 205.41 279.24 204.97 278.34"/><text class="cls-8" transform="translate(447.67 160.57)">ONOO</text><text class="cls-8" transform="translate(469.13 158.24) scale(0.58)">−</text><text class="cls-8" transform="translate(471.52 160.57)">/ NO</text><text class="cls-8" transform="translate(485.96 162.91) scale(0.58)">2<tspan x="3.91" y="-8.02">−</tspan></text><text class="cls-8" transform="translate(490.63 160.57)"> </text></svg>