<svg id="Redox_ordered" data-name="Redox ordered" xmlns="http://www.w3.org/2000/svg" viewBox="0 0 598.97 343.28"><defs><style>.cls-1,.cls-2,.cls-20,.cls-22,.cls-71,.cls-73,.cls-74{fill:none;stroke-miterlimit:10;stroke-width:0.44px;}.cls-1{stroke:#d1d3d4;}.cls-2{stroke:#bcbec0;stroke-dasharray:1.76;}.cls-3,.cls-7{font-size:8.78px;}.cls-14,.cls-3,.cls-5,.cls-7{fill:#bcbec0;}.cls-10,.cls-13,.cls-14,.cls-15,.cls-16,.cls-17,.cls-3,.cls-30,.cls-32,.cls-33,.cls-34,.cls-36,.cls-37,.cls-38,.cls-39,.cls-4,.cls-40,.cls-43,.cls-45,.cls-46,.cls-47,.cls-49,.cls-5,.cls-53,.cls-55,.cls-56,.cls-59,.cls-62,.cls-7,.cls-72,.cls-8,.cls-9{font-family:Helvetica, Helvetica;}.cls-4{font-size:12.29px;}.cls-13,.cls-14,.cls-37,.cls-43,.cls-45,.cls-46,.cls-5,.cls-56,.cls-59,.cls-62,.cls-8,.cls-9{font-size:7.02px;}.cls-6{letter-spacing:-0.05em;}.cls-7{letter-spacing:-0.02em;}.cls-13,.cls-30,.cls-32,.cls-33,.cls-34,.cls-36,.cls-37,.cls-38,.cls-39,.cls-40,.cls-49,.cls-60,.cls-63,.cls-64,.cls-65,.cls-8,.cls-9{fill:#231f20;}.cls-23,.cls-59,.cls-62,.cls-9{letter-spacing:0em;}.cls-10,.cls-16,.cls-17,.cls-33,.cls-34,.cls-36{font-size:5.27px;}.cls-10{fill:#939598;}.cls-11{letter-spacing:-0.07em;}.cls-12,.cls-13{letter-spacing:0em;}.cls-14{letter-spacing:-0.04em;}.cls-15,.cls-38,.cls-39,.cls-40,.cls-72{font-size:5.27px;}.cls-16,.cls-44,.cls-45,.cls-46,.cls-62,.cls-70{fill:#346fb7;}.cls-17,.cls-43,.cls-47,.cls-58,.cls-59{fill:#6eb8e6;}.cls-18{letter-spacing:-0.02em;}.cls-19{letter-spacing:-0.02em;}.cls-20{stroke:#231f20;}.cls-21{letter-spacing:0em;}.cls-22{stroke:#d55127;}.cls-24{letter-spacing:-0.07em;}.cls-25{letter-spacing:-0.05em;}.cls-26{letter-spacing:-0.02em;}.cls-27{letter-spacing:-0.11em;}.cls-28{letter-spacing:0em;}.cls-29{letter-spacing:-0.09em;}.cls-30,.cls-32,.cls-47,.cls-49{font-size:7.02px;}.cls-31,.cls-49{letter-spacing:0em;}.cls-32{letter-spacing:0em;}.cls-34{letter-spacing:0em;}.cls-35,.cls-36{letter-spacing:0em;}.cls-37,.cls-60,.cls-61{letter-spacing:0em;}.cls-39{letter-spacing:0em;}.cls-40,.cls-41{letter-spacing:0em;}.cls-42{letter-spacing:-0.05em;}.cls-45{letter-spacing:0em;}.cls-48,.cls-65{letter-spacing:-0.05em;}.cls-50{letter-spacing:-0.02em;}.cls-51,.cls-70{letter-spacing:0em;}.cls-52{letter-spacing:-0.05em;}.cls-53{font-size:7px;}.cls-54{font-size:5px;}.cls-55{font-size:10px;}.cls-57{letter-spacing:-0.07em;}.cls-64{letter-spacing:0em;}.cls-66{letter-spacing:-0.02em;}.cls-67{letter-spacing:-0.05em;}.cls-68{letter-spacing:0em;}.cls-69{letter-spacing:-0.05em;}.cls-71{stroke:#000;}.cls-72{fill:#e9e72e;}.cls-73,.cls-74{stroke:#e9e72e;}.cls-73{stroke-dasharray:1.76;}</style></defs><title>revised-redox-tower</title><line class="cls-1" x1="62.21" y1="71.41" x2="595.03" y2="71.41"/><line class="cls-1" x1="62.21" y1="87.57" x2="595.03" y2="87.57"/><line class="cls-1" x1="62.21" y1="54.88" x2="595.03" y2="54.88"/><line class="cls-1" x1="62.21" y1="103.98" x2="595.03" y2="103.98"/><line class="cls-1" x1="62.21" y1="120.38" x2="595.03" y2="120.38"/><line class="cls-1" x1="62.42" y1="136.79" x2="595.03" y2="136.79"/><line class="cls-1" x1="62.21" y1="153.19" x2="595.03" y2="153.19"/><line class="cls-1" x1="62.21" y1="186" x2="547" y2="186"/><line class="cls-1" x1="76.84" y1="54.94" x2="76.84" y2="186.29"/><line class="cls-1" x1="136.31" y1="54.94" x2="136.31" y2="186.29"/><line class="cls-1" x1="195.78" y1="54.94" x2="195.78" y2="186.29"/><line class="cls-1" x1="255.26" y1="54.94" x2="255.26" y2="186.29"/><line class="cls-1" x1="314.73" y1="54.94" x2="314.73" y2="186.29"/><line class="cls-1" x1="374.2" y1="54.94" x2="374.2" y2="186.29"/><line class="cls-1" x1="433.67" y1="54.94" x2="433.67" y2="186.29"/><line class="cls-1" x1="433.67" y1="54.44" x2="433.67" y2="185.78"/><line class="cls-1" x1="493.14" y1="54.44" x2="493.14" y2="185.78"/><line class="cls-1" x1="493.14" y1="55.31" x2="493.14" y2="186.66"/><line class="cls-1" x1="552.61" y1="55.31" x2="552.61" y2="186.66"/><line class="cls-1" x1="62.21" y1="169.6" x2="595.03" y2="169.6"/><line class="cls-1" x1="62.21" y1="186" x2="595.03" y2="186"/><line class="cls-2" x1="63.34" y1="140.45" x2="596.03" y2="140.45"/><line class="cls-2" x1="62.42" y1="119.11" x2="595.1" y2="119.11"/><line class="cls-2" x1="62.28" y1="69.87" x2="594.96" y2="69.87"/><line class="cls-2" x1="62.28" y1="66.32" x2="594.96" y2="66.32"/><text class="cls-3" transform="translate(35.92 73.04)">-1000</text><text class="cls-3" transform="translate(37.22 56.32)">-1500</text><text class="cls-3" transform="translate(40.19 89.48)">-500</text><text class="cls-3" transform="translate(51.74 105.91)">0</text><text class="cls-3" transform="translate(34.35 138.78)">+1000</text><text class="cls-3" transform="translate(35.65 155.22)">+1500</text><text class="cls-3" transform="translate(38.66 122.35)">+500</text><text class="cls-3" transform="translate(33.35 171.66)">+2000</text><text class="cls-3" transform="translate(33.35 188.06)">+2500</text><text class="cls-4" transform="translate(3.84 10.55)">Redox couples and potentials (mV) for elements common in biology at pH 7 and temperature 25 C *</text><text class="cls-5" transform="translate(3.84 22.22)">Redox potential indicates the propensity for a compound to transfer electrons to another compound.<tspan class="cls-6" x="309.57" y="0" xml:space="preserve"> A</tspan><tspan x="315.44" y="0" xml:space="preserve"> more-negative redox potential means a compound is more likely to donate electrons (e-). </tspan><tspan x="0" y="8.43">All of life gets its energy by capturing the change in potential energy from the transfer of electrons from the reducing compound to the oxidizing compound.</tspan></text><text class="cls-3" transform="translate(549.26 47.27)">O</text><text class="cls-3" transform="translate(193.32 47.27)">C</text><text class="cls-3" transform="translate(132.77 47.27)">H</text><text class="cls-3" transform="translate(430.81 47.27)">N</text><text class="cls-7" transform="translate(75.4 47.27)">P</text><text class="cls-3" transform="translate(253.07 47.27)">S</text><text class="cls-3" transform="translate(310.4 47.27)">Se</text><text class="cls-3" transform="translate(489.05 47.27)">Cl</text><text class="cls-3" transform="translate(355.68 47.27)">Metal(oid)s</text><text class="cls-8" transform="translate(556.53 131.33)">O</text><text class="cls-8" transform="translate(561.99 133.67) scale(0.58)">2</text><text class="cls-8" transform="translate(564.27 131.33)"><tspan xml:space="preserve">  / 2 H</tspan></text><text class="cls-8" transform="translate(583 133.67) scale(0.58)">2</text><text class="cls-8" transform="translate(585.28 131.33)">O</text><text class="cls-8" transform="translate(556.53 164.97)">H</text><text class="cls-9" transform="translate(561.6 167.31) scale(0.58)">2</text><text class="cls-8" transform="translate(563.88 164.97)">O</text><text class="cls-8" transform="translate(569.34 167.31) scale(0.58)">2</text><text class="cls-8" transform="translate(571.62 164.97)"><tspan xml:space="preserve">  / 2 H</tspan></text><text class="cls-8" transform="translate(590.35 167.31) scale(0.58)">2</text><text class="cls-8" transform="translate(592.63 164.97)">O</text><text class="cls-10" transform="translate(540.34 131.57)">+815</text><text class="cls-10" transform="translate(479.71 133.32)">+788</text><text class="cls-10" transform="translate(478.41 143.87)">+<tspan class="cls-11" x="3.08" y="0">1</tspan><tspan x="5.62" y="0">199</tspan></text><text class="cls-10" transform="translate(479.3 128.35)">+709</text><text class="cls-10" transform="translate(63.7 78.5)">-740</text><text class="cls-10" transform="translate(63.7 87.82)">-650</text><text class="cls-10" transform="translate(63.7 83.86)">-660</text><text class="cls-8" transform="translate(496.96 135.72)">ClO</text><text class="cls-8" transform="translate(509.06 138.06) scale(0.58)">4<tspan x="3.91" y="-8.02">-</tspan></text><text class="cls-8" transform="translate(512.7 135.72)"><tspan xml:space="preserve"> / ClO</tspan></text><text class="cls-8" transform="translate(530.64 138.06) scale(0.58)">3<tspan x="3.91" y="-8.02">-</tspan></text><text class="cls-8" transform="translate(496.96 128.55)">ClO</text><text class="cls-8" transform="translate(509.06 130.89) scale(0.58)">3<tspan x="3.91" y="-8.02">-</tspan></text><text class="cls-8" transform="translate(512.7 128.55)"><tspan xml:space="preserve"> / ClO</tspan></text><text class="cls-8" transform="translate(530.64 130.89) scale(0.58)">2<tspan x="3.91" y="-8.02">-</tspan></text><text class="cls-8" transform="translate(81.49 75.34)">HPO</text><text class="cls-8" transform="translate(96.71 77.68) scale(0.58)">3<tspan class="cls-12" x="3.91" y="-8.02">2-</tspan></text><text class="cls-8" transform="translate(102.63 75.34)"><tspan xml:space="preserve"> / H</tspan></text><text class="cls-8" transform="translate(113.55 77.68) scale(0.58)">2</text><text class="cls-8" transform="translate(115.83 75.34)">PO</text><text class="cls-8" transform="translate(125.98 77.68) scale(0.58)">2<tspan x="3.91" y="-8.02">-</tspan></text><text class="cls-8" transform="translate(81.49 83.86)">H</text><text class="cls-8" transform="translate(86.56 86.2) scale(0.58)">2</text><text class="cls-8" transform="translate(88.84 83.86)">PO</text><text class="cls-8" transform="translate(98.99 86.2) scale(0.58)"><tspan class="cls-12">2</tspan><tspan x="3.9" y="-8.02">-</tspan></text><text class="cls-8" transform="translate(102.63 83.86)"><tspan xml:space="preserve"> / PH</tspan></text><text class="cls-13" transform="translate(118.24 86.2) scale(0.58)">3</text><text class="cls-5" transform="translate(0 71.61)">Donates e-</text><text class="cls-5" transform="translate(40.77 105.91)">E</text><text class="cls-5" transform="translate(45.46 103.57) scale(0.58)">o</text><text class="cls-14" transform="translate(47.73 105.91)">’</text><text class="cls-5" transform="translate(7.75 83.6)">e-</text><text class="cls-15" transform="translate(11.41 253.18)">e-</text><text class="cls-16" transform="translate(53.74 236.42)">DONOR</text><text class="cls-17" transform="translate(23.18 255.31)">ACCEP<tspan class="cls-18" x="18.15" y="0">T</tspan><tspan x="21.27" y="0">OR</tspan></text><text class="cls-15" transform="translate(93.57 263.4)">e-</text><text class="cls-15" transform="translate(99.31 236.43)">PRODUC<tspan class="cls-19" x="22.84" y="0">T</tspan></text><text class="cls-15" transform="translate(112.78 279.5)">PRODUC<tspan class="cls-19" x="22.84" y="0">T</tspan></text><text class="cls-15" transform="translate(178.06 248.64)">e-</text><text class="cls-15" transform="translate(255.13 246.3)">e-</text><text class="cls-15" transform="translate(340.95 255.97)">e-</text><text class="cls-15" transform="translate(340.95 272.95)">e-</text><text class="cls-5" transform="translate(0.04 102.54)">Accepts e-</text><text class="cls-8" transform="translate(81.49 92.4)">PO</text><text class="cls-8" transform="translate(91.64 94.74) scale(0.58)">4<tspan class="cls-12" x="3.91" y="-8.02">3-</tspan></text><text class="cls-8" transform="translate(97.56 92.4)"><tspan xml:space="preserve">  / HPO</tspan></text><text class="cls-8" transform="translate(120.58 94.74) scale(0.58)">3<tspan class="cls-12" x="3.91" y="-8.02">2-</tspan></text><text class="cls-8" transform="translate(497.09 143.99)">ClO</text><text class="cls-8" transform="translate(509.18 146.33) scale(0.58)">2<tspan x="3.91" y="-8.02">-</tspan></text><text class="cls-8" transform="translate(512.82 143.99)"><tspan xml:space="preserve"> / Cl</tspan></text><text class="cls-8" transform="translate(525.3 141.65) scale(0.58)">-</text><circle class="cls-20" cx="552.61" cy="130.81" r="1.61"/><text class="cls-8" transform="translate(556.13 100.64)">O</text><text class="cls-8" transform="translate(561.59 102.97) scale(0.58)">2</text><text class="cls-8" transform="translate(563.87 100.64)"><tspan xml:space="preserve">  / O</tspan></text><text class="cls-8" transform="translate(577.13 102.97) scale(0.58)">2<tspan class="cls-21" x="3.91" y="-8.02">•–</tspan></text><text class="cls-10" transform="translate(540.46 99.97)">-160</text><circle class="cls-22" cx="552.61" cy="98.36" r="1.61"/><text class="cls-8" transform="translate(556.53 138.94)">O</text><text class="cls-8" transform="translate(561.99 141.28) scale(0.58)">2<tspan x="3.91" y="-8.02">•–</tspan></text><text class="cls-8" transform="translate(567.98 138.94)"><tspan xml:space="preserve"> / H</tspan></text><text class="cls-8" transform="translate(578.9 141.28) scale(0.58)">2</text><text class="cls-8" transform="translate(581.18 138.94)">O</text><text class="cls-8" transform="translate(586.64 141.28) scale(0.58)">2</text><text class="cls-10" transform="translate(538.56 136.54)">+940</text><circle class="cls-22" cx="552.61" cy="135.79" r="1.61"/><text class="cls-10" transform="translate(537.4 163.22)">+1770</text><circle class="cls-20" cx="552.61" cy="162.46" r="1.61"/><text class="cls-8" transform="translate(557.01 182.95)">OH</text><text class="cls-9" transform="translate(567.54 180.61) scale(0.58)">•</text><text class="cls-8" transform="translate(568.97 182.95)"><tspan xml:space="preserve">  / H</tspan></text><text class="cls-8" transform="translate(581.85 185.29) scale(0.58)">2</text><text class="cls-8" transform="translate(584.13 182.95)">O</text><text class="cls-10" transform="translate(537.03 181.19)">+2330</text><circle class="cls-22" cx="552.61" cy="180.44" r="1.61"/><text class="cls-8" transform="translate(554.77 116.24)"><tspan xml:space="preserve"> H</tspan></text><text class="cls-8" transform="translate(561.8 118.58) scale(0.58)">2</text><text class="cls-8" transform="translate(564.07 116.24)">O</text><text class="cls-9" transform="translate(569.53 118.58) scale(0.58)">2</text><text class="cls-8" transform="translate(571.81 116.24)"><tspan xml:space="preserve"> / 2OH</tspan></text><text class="cls-8" transform="translate(592.1 113.9) scale(0.58)">•</text><text class="cls-10" transform="translate(539.06 115.36)">+380</text><circle class="cls-22" cx="552.61" cy="114.61" r="1.61"/><circle class="cls-20" cx="493.14" cy="129.94" r="1.61"/><circle class="cls-22" cx="493.14" cy="144.12" r="1.61"/><text class="cls-8" transform="translate(497.09 151.73)">HOCl / Cl</text><text class="cls-8" transform="translate(526.74 149.39) scale(0.58)">-</text><circle class="cls-22" cx="493.14" cy="146.59" r="1.61"/><circle class="cls-22" cx="439.11" cy="191.57" r="1.61"/><text class="cls-10" transform="translate(419.7 118.62)">+433</text><text class="cls-10" transform="translate(419.33 123.59)">+440</text><text class="cls-8" transform="translate(437.68 119.65)">NO</text><text class="cls-8" transform="translate(448.21 121.99) scale(0.58)"><tspan class="cls-23">3</tspan><tspan x="3.91" y="-8.02">-</tspan></text><text class="cls-8" transform="translate(451.85 119.65)"><tspan xml:space="preserve"> / NO</tspan></text><text class="cls-8" transform="translate(468.24 121.99) scale(0.58)">2<tspan x="3.91" y="-8.02">-</tspan></text><circle class="cls-20" cx="433.67" cy="118.01" r="1.61"/><circle class="cls-20" cx="433.67" cy="118.89" r="1.61"/><text class="cls-10" transform="translate(418.58 142.28)">+<tspan class="cls-24" x="3.08" y="0">1</tspan><tspan x="5.62" y="0">180</tspan></text><text class="cls-8" transform="translate(437.68 139.4)">2 NO / N</text><text class="cls-8" transform="translate(464.99 141.74) scale(0.58)">2</text><text class="cls-8" transform="translate(467.27 139.4)">O</text><text class="cls-8" transform="translate(437.68 154.14)">N</text><text class="cls-9" transform="translate(442.75 156.48) scale(0.58)">2</text><text class="cls-8" transform="translate(445.03 154.14)">O / N</text><text class="cls-9" transform="translate(461.41 156.48) scale(0.58)">2</text><circle class="cls-20" cx="433.67" cy="142.79" r="1.61"/><text class="cls-10" transform="translate(418.49 150.14)">+1350</text><text class="cls-10" transform="translate(442.53 193.18)">Reactive oxidants not used in energy metabolism, often toxic</text><text class="cls-5" transform="translate(68.09 194.18)">Not shown: electron carrying cofactors, B<tspan class="cls-25" x="128.02" y="0">r</tspan><tspan x="129.98" y="0">, I,</tspan><tspan class="cls-26" x="137.78" y="0"> </tspan><tspan class="cls-27" x="139.61" y="0">T</tspan><tspan x="143.12" y="0">e,</tspan><tspan class="cls-6" x="148.98" y="0"> </tspan><tspan x="150.54" y="0">Ag,</tspan><tspan class="cls-25" x="161.08" y="0"> </tspan><tspan class="cls-28" x="162.65" y="0">Au, Pd, Hg, C</tspan><tspan class="cls-6" x="205.58" y="0">r</tspan><tspan x="207.54" y="0">, </tspan><tspan class="cls-29" x="211.44" y="0">V</tspan><tspan x="215.48" y="0">, Mo,</tspan><tspan class="cls-26" x="231.09" y="0"> </tspan><tspan class="cls-27" x="232.92" y="0">T</tspan><tspan x="236.43" y="0">c, various Fe minerals, various organics.</tspan></text><text class="cls-10" transform="translate(417.61 145.3)">+1200</text><text class="cls-5" transform="translate(79.8 146.92)">Photosystem II (ground state)</text><text class="cls-5" transform="translate(506.47 64.32)">Photosystem II (excited state)</text><text class="cls-5" transform="translate(79.89 126.75)">Photosystem I (ground state)</text><text class="cls-5" transform="translate(506.47 77.76)">Photosystem I (excited state)</text><circle class="cls-20" cx="433.67" cy="148.64" r="1.61"/><circle class="cls-22" cx="433.67" cy="143.8" r="1.61"/><text class="cls-10" transform="translate(419.75 113.5)">+340</text><text class="cls-8" transform="translate(437.68 111.74)">NO</text><text class="cls-8" transform="translate(448.21 114.08) scale(0.58)"><tspan class="cls-23">2</tspan><tspan x="3.91" y="-8.02">-</tspan></text><text class="cls-8" transform="translate(451.85 111.74)"><tspan xml:space="preserve"> / NO</tspan></text><text class="cls-8" transform="translate(437.68 127.77)">NO</text><text class="cls-8" transform="translate(448.21 130.11) scale(0.58)"><tspan class="cls-23">2</tspan><tspan x="3.91" y="-8.02">-</tspan></text><text class="cls-8" transform="translate(451.85 127.77)"><tspan xml:space="preserve"> / NH</tspan></text><text class="cls-8" transform="translate(467.85 130.11) scale(0.58)">4<tspan x="3.91" y="-8.02">+</tspan></text><circle class="cls-20" cx="433.67" cy="113.76" r="1.61"/><text class="cls-10" transform="translate(420.75 108.21)">+130</text><circle class="cls-20" cx="433.67" cy="108.47" r="1.61"/><text class="cls-10" transform="translate(243.71 89.11)">-516</text><text class="cls-30" transform="translate(260.05 86.53)">SO</text><text class="cls-30" transform="translate(270.2 88.87) scale(0.58)">4<tspan x="3.9" y="-8.02">2-</tspan></text><text class="cls-30" transform="translate(276.11 86.53)"><tspan xml:space="preserve"> / HSO</tspan></text><text class="cls-30" transform="translate(297.18 88.87) scale(0.58)">3<tspan class="cls-31" x="3.9" y="-8.02">-</tspan></text><circle class="cls-20" cx="255.26" cy="86.92" r="1.61"/><text class="cls-10" transform="translate(244.71 105.75)">-60</text><text class="cls-30" transform="translate(260.05 109.64)"><tspan xml:space="preserve">APS  / HSO</tspan></text><text class="cls-30" transform="translate(297.11 111.97) scale(0.58)">3<tspan class="cls-31" x="3.9" y="-8.02">-</tspan></text><circle class="cls-20" cx="255.26" cy="102.95" r="1.61"/><text class="cls-10" transform="translate(243.87 101.99)">-<tspan class="cls-24" x="1.75" y="0">1</tspan><tspan x="4.29" y="0">16</tspan></text><text class="cls-30" transform="translate(260.05 101.96)">HSO</text><text class="cls-30" transform="translate(275.27 104.3) scale(0.58)">3<tspan x="3.9" y="-8.02">-</tspan></text><text class="cls-30" transform="translate(278.91 101.96)"><tspan xml:space="preserve"> / HS</tspan></text><text class="cls-30" transform="translate(294.51 99.62) scale(0.58)">-</text><circle class="cls-20" cx="255.26" cy="100.8" r="1.61"/><text class="cls-10" transform="translate(243.48 97.19)">-275</text><text class="cls-30" transform="translate(260.05 95.19)">S</text><text class="cls-30" transform="translate(264.74 92.85) scale(0.58)">0</text><text class="cls-32" transform="translate(267.01 95.19)"><tspan xml:space="preserve"> / HS</tspan></text><text class="cls-30" transform="translate(282.62 92.85) scale(0.58)">-</text><circle class="cls-20" cx="255.26" cy="95.86" r="1.61"/><text class="cls-10" transform="translate(242.01 111.77)">+160</text><text class="cls-30" transform="translate(259.18 116.25)">DMSO / DMS</text><circle class="cls-20" cx="255.26" cy="110.25" r="1.61"/><text class="cls-10" transform="translate(479.23 119.46)">+464</text><text class="cls-8" transform="translate(496.56 119.49)">CH</text><text class="cls-8" transform="translate(506.71 121.83) scale(0.58)">3</text><text class="cls-8" transform="translate(508.98 119.49)">Cl / CH</text><text class="cls-8" transform="translate(531.61 121.83) scale(0.58)">4</text><circle class="cls-20" cx="493.14" cy="117.83" r="1.61"/><text class="cls-10" transform="translate(363.67 107.33)">+14</text><text class="cls-10" transform="translate(363.38 102.35)">-40</text><text class="cls-33" transform="translate(377.9 108.24)">Fe(III)(OH)</text><text class="cls-33" transform="translate(403.36 109.99) scale(0.58)">3</text><text class="cls-34" transform="translate(405.06 108.24)"><tspan xml:space="preserve"> / Fe</tspan></text><text class="cls-33" transform="translate(415.6 106.49) scale(0.58)">2+</text><text class="cls-33" transform="translate(377.91 101.96) rotate(0.05)">U(VI)O</text><text class="cls-33" transform="translate(394.29 103.73) rotate(0.05) scale(0.58)">2<tspan class="cls-35" x="2.93" y="-6.02">2+</tspan></text><text class="cls-34" transform="translate(399.5 101.98) rotate(0.05)"><tspan xml:space="preserve"> / U(IV)O</tspan></text><text class="cls-36" transform="translate(420.28 103.75) rotate(0.05) scale(0.58)">2</text><circle class="cls-20" cx="374.09" cy="103.96" r="1.61"/><text class="cls-10" transform="translate(359.63 134.46)">+770</text><text class="cls-33" transform="translate(377.9 136.12)">Fe</text><text class="cls-33" transform="translate(384.05 134.37) scale(0.58)">3+</text><text class="cls-33" transform="translate(387.55 136.12)"><tspan xml:space="preserve"> / Fe</tspan></text><text class="cls-33" transform="translate(398.09 134.37) scale(0.58)">2+ </text><text class="cls-33" transform="translate(402.44 136.12)">(pH 2)</text><circle class="cls-20" cx="374.09" cy="132.85" r="1.61"/><circle class="cls-20" cx="374.09" cy="101.96" r="1.61"/><text class="cls-10" transform="translate(362.31 95.78)">-314</text><text class="cls-33" transform="translate(377.9 94.14)">Fe(III)</text><text class="cls-33" transform="translate(391.95 95.9) scale(0.58)">3</text><text class="cls-33" transform="translate(393.66 94.14)">O</text><text class="cls-33" transform="translate(397.75 95.9) scale(0.58)">4</text><text class="cls-33" transform="translate(399.46 94.14)"><tspan xml:space="preserve"> / Fe</tspan></text><text class="cls-33" transform="translate(410 92.39) scale(0.58)">2+</text><circle class="cls-20" cx="374.09" cy="94.17" r="1.61"/><text class="cls-10" transform="translate(360.63 124.48)">+530</text><text class="cls-10" transform="translate(360.15 129.33)">+540</text><text class="cls-10" transform="translate(301.4 111.25)">+210</text><text class="cls-33" transform="translate(377.9 123.48)">Mn(IV)O</text><text class="cls-33" transform="translate(397.8 125.23) scale(0.58)">2</text><text class="cls-33" transform="translate(399.51 123.48)"><tspan xml:space="preserve"> /  Mn</tspan></text><text class="cls-36" transform="translate(412.68 121.73) scale(0.58)">2+</text><circle class="cls-20" cx="374.09" cy="125.75" r="1.61"/><circle class="cls-20" cx="374.09" cy="127.36" r="1.61"/><circle class="cls-20" cx="314.73" cy="109.9" r="1.61"/><text class="cls-10" transform="translate(300.19 121.07)">+480</text><circle class="cls-20" cx="314.73" cy="119.46" r="1.61"/><text class="cls-10" transform="translate(124.36 91.38)">-414</text><text class="cls-8" transform="translate(140.52 92.26)">2 H</text><text class="cls-8" transform="translate(151.44 89.92) scale(0.58)">+</text><text class="cls-37" transform="translate(153.84 92.26)"><tspan xml:space="preserve"> / H</tspan></text><text class="cls-9" transform="translate(164.76 94.6) scale(0.58)">2</text><circle class="cls-20" cx="136.31" cy="89.77" r="1.61"/><text class="cls-10" transform="translate(182.1 98.83)">-240</text><text class="cls-10" transform="translate(182.1 95.21)">-280</text><text class="cls-38" transform="translate(200.14 98.83)">CO</text><text class="cls-39" transform="translate(208.04 100.58) scale(0.58)">2</text><text class="cls-40" transform="translate(209.75 98.83)"><tspan xml:space="preserve"> / CH</tspan></text><text class="cls-39" transform="translate(221.75 100.58) scale(0.58)">4</text><text class="cls-38" transform="translate(200.14 93.6)">CO</text><text class="cls-39" transform="translate(208.04 95.36) scale(0.58)">2</text><text class="cls-38" transform="translate(209.75 93.6)"><tspan class="cls-41" xml:space="preserve"> /</tspan><tspan class="cls-42" x="2.93" y="0"> </tspan><tspan x="4.1" y="0">Acetate</tspan></text><circle class="cls-20" cx="195.93" cy="96.22" r="1.61"/><circle class="cls-20" cx="195.93" cy="95.21" r="1.61"/><text class="cls-43" transform="translate(451.95 281.82)">Photosystem I (ground state)</text><text class="cls-8" transform="translate(424.67 257.76)">S</text><text class="cls-8" transform="translate(429.35 255.42) scale(0.58)">0</text><text class="cls-8" transform="translate(431.63 257.76)"><tspan xml:space="preserve"> / </tspan><tspan class="cls-44" x="5.85" y="0">HS</tspan></text><text class="cls-45" transform="translate(447.24 255.42) scale(0.58)">-</text><circle class="cls-20" cx="448.4" cy="256.15" r="1.61"/><circle class="cls-20" cx="447.96" cy="279.39" r="1.61"/><text class="cls-46" transform="translate(484.94 247.32)">Photosystem I (excited state)</text><circle class="cls-20" cx="480.95" cy="244.9" r="1.61"/><text class="cls-47" transform="translate(485.34 257.59)">CO</text><text class="cls-47" transform="translate(495.87 259.93) scale(0.58)">2</text><text class="cls-30" transform="translate(498.15 257.59)"><tspan xml:space="preserve"> /</tspan><tspan class="cls-48" x="3.9" y="0"> </tspan><tspan x="5.47" y="0">Acetate</tspan></text><circle class="cls-20" cx="481.14" cy="255.5" r="1.61"/><text class="cls-10" transform="translate(182.1 81.81)">-720</text><text class="cls-33" transform="translate(200.14 81.69)">Pyruvate / Glucose</text><circle class="cls-20" cx="195.93" cy="80.2" r="1.61"/><text class="cls-10" transform="translate(182.1 103.05)">-190</text><text class="cls-33" transform="translate(200.14 103.57)">Pyruvate / Lactate</text><circle class="cls-20" cx="195.93" cy="99.43" r="1.61"/><text class="cls-10" transform="translate(183.79 107.78)">+30</text><text class="cls-33" transform="translate(200.14 108.29)">Fumarate / Succinate</text><circle class="cls-20" cx="195.93" cy="105.47" r="1.61"/><text class="cls-10" transform="translate(182.1 89.17)">-500</text><text class="cls-38" transform="translate(200.14 88.05)">CO</text><text class="cls-39" transform="translate(208.04 89.8) scale(0.58)">2</text><text class="cls-40" transform="translate(209.75 88.05)"><tspan xml:space="preserve">  / Glucose</tspan></text><circle class="cls-20" cx="195.93" cy="87.56" r="1.61"/><circle class="cls-20" cx="77.01" cy="79.37" r="1.61"/><circle class="cls-20" cx="77.01" cy="83.81" r="1.61"/><circle class="cls-20" cx="77.01" cy="82.25" r="1.61"/><circle class="cls-20" cx="493.14" cy="128.33" r="1.61"/><text class="cls-30" transform="translate(318.87 121.73)">SeO</text><text class="cls-30" transform="translate(332.91 124.06) scale(0.58)">4<tspan x="3.9" y="-8.02">2−</tspan></text><text class="cls-30" transform="translate(339.85 121.73)"><tspan xml:space="preserve"> /  SeO</tspan></text><text class="cls-30" transform="translate(361.7 124.06) scale(0.58)"><tspan class="cls-31">3</tspan><tspan x="3.9" y="-8.02">2−</tspan></text><text class="cls-33" transform="translate(377.9 129.44)">HAs(V)O</text><text class="cls-33" transform="translate(398.97 131.2) scale(0.58)">4<tspan x="2.93" y="-6.02">2−</tspan></text><text class="cls-33" transform="translate(404.18 129.44)"><tspan xml:space="preserve"> /  H</tspan></text><text class="cls-36" transform="translate(413.84 131.2) scale(0.58)">3</text><text class="cls-34" transform="translate(415.54 129.44)">As(III)O</text><text class="cls-33" transform="translate(433.68 131.2) scale(0.58)">3</text><text class="cls-30" transform="translate(318.87 112.04)">SeO</text><text class="cls-30" transform="translate(332.91 114.37) scale(0.58)">3<tspan x="3.9" y="-8.02">2−</tspan></text><text class="cls-30" transform="translate(339.85 112.04)"><tspan xml:space="preserve">  /  Se</tspan></text><text class="cls-30" transform="translate(358.19 109.7) scale(0.58)">0</text><text class="cls-10" transform="translate(301.83 80.64)">-730</text><circle class="cls-20" cx="314.73" cy="79.65" r="1.61"/><text class="cls-30" transform="translate(318.87 81.26)">Se</text><text class="cls-49" transform="translate(327.45 78.92) scale(0.58)">0</text><text class="cls-30" transform="translate(329.73 81.26)"><tspan xml:space="preserve"> / HSe</tspan></text><text class="cls-30" transform="translate(349.24 78.92) scale(0.58)">−</text><text class="cls-8" transform="translate(436.8 104.85)">TMAO /<tspan class="cls-50" x="24.19" y="0"> </tspan><tspan class="cls-51" x="26.02" y="0">TM</tspan><tspan class="cls-52" x="36.16" y="0">A</tspan></text><line class="cls-1" x1="15.35" y1="75.79" x2="15.35" y2="92.98"/><polygon class="cls-1" points="14.91 92.61 15.79 92.61 15.35 93.5 14.91 92.61"/><text class="cls-53" transform="translate(95.28 227.45)">Aerobic Respiration</text><text class="cls-53" transform="translate(180.12 227.45)">Anaerobic Respiration<tspan class="cls-54"><tspan x="0" y="6">Denitrification</tspan></tspan></text><text class="cls-53" transform="translate(258.1 227.45)">Methanogenesis</text><text class="cls-53" transform="translate(336.96 227.8)">Chemolitoautotrophy<tspan class="cls-54"><tspan x="0" y="6">Nitrification (nitrite)</tspan></tspan></text><text class="cls-53" transform="translate(422.7 227.45)">Photolitoautotrophy<tspan class="cls-54"><tspan x="0" y="6">Sulfide oxidation</tspan></tspan></text><text class="cls-53" transform="translate(15.08 227.45)">Fermentation</text><text class="cls-55" transform="translate(3.84 213.3)">Examples of enegertically favorable redox metabolisms</text><text class="cls-56" transform="translate(3.84 339.9)">* For teaching purposes onl<tspan class="cls-57" x="85.88" y="0">y</tspan><tspan x="88.88" y="0">. Consult the scientific literature for exact values.</tspan></text><text class="cls-56" transform="translate(430.02 339.9)">Image produced by<tspan class="cls-50" x="60.12" y="0"> </tspan><tspan class="cls-6" x="61.95" y="0">T</tspan><tspan x="65.85" y="0">yler Barnum @tylerbarnumphd</tspan></text><text class="cls-10" transform="translate(189.88 279.5)">933</text><text class="cls-43" transform="translate(199.16 275.89)">NO</text><text class="cls-43" transform="translate(209.69 278.23) scale(0.58)"><tspan class="cls-23">3</tspan><tspan x="3.91" y="-8.02">-</tspan></text><text class="cls-8" transform="translate(213.33 275.89)"><tspan xml:space="preserve"> / NO</tspan></text><text class="cls-8" transform="translate(229.72 278.23) scale(0.58)">2<tspan x="3.91" y="-8.02">-</tspan></text><circle class="cls-20" cx="191.49" cy="272.95" r="1.61"/><text class="cls-10" transform="translate(189.88 291.71)">1680</text><text class="cls-8" transform="translate(192.16 299.34)">2 <tspan class="cls-58" x="5.86" y="0">NO</tspan><tspan x="16.39" y="0" xml:space="preserve"> / N</tspan></text><text class="cls-8" transform="translate(219.47 301.68) scale(0.58)">2</text><text class="cls-8" transform="translate(221.75 299.34)">O</text><text class="cls-43" transform="translate(189.15 307.08)">N</text><text class="cls-59" transform="translate(194.22 309.42) scale(0.58)">2</text><text class="cls-43" transform="translate(196.5 307.08)">O<tspan class="cls-60" x="5.46" y="0" xml:space="preserve"> / N</tspan></text><text class="cls-9" transform="translate(212.89 309.42) scale(0.58)">2</text><circle class="cls-20" cx="187.79" cy="297.73" r="1.61"/><text class="cls-10" transform="translate(180.12 311.95)">1850</text><circle class="cls-20" cx="184.49" cy="303.58" r="1.61"/><text class="cls-10" transform="translate(197.47 261.25)">840</text><text class="cls-43" transform="translate(199.16 268.44)">NO</text><text class="cls-43" transform="translate(209.69 270.78) scale(0.58)"><tspan class="cls-23">2</tspan><tspan x="3.91" y="-8.02">-</tspan></text><text class="cls-8" transform="translate(213.33 268.44)"><tspan xml:space="preserve"> / NO</tspan></text><circle class="cls-20" cx="194.49" cy="268.7" r="1.61"/><text class="cls-8" transform="translate(266.07 243.45)">2 H</text><text class="cls-8" transform="translate(277 241.11) scale(0.58)">+</text><text class="cls-8" transform="translate(279.39 243.45)"><tspan class="cls-61" xml:space="preserve"> / </tspan><tspan class="cls-44" x="5.85" y="0">H</tspan></text><text class="cls-62" transform="translate(290.32 245.79) scale(0.58)">2</text><circle class="cls-20" cx="261.8" cy="242.22" r="1.61"/><text class="cls-10" transform="translate(258.08 255.97)">174</text><text class="cls-47" transform="translate(265.97 252.25)">CO</text><text class="cls-47" transform="translate(276.5 254.59) scale(0.58)">2</text><text class="cls-30" transform="translate(278.78 252.25)"><tspan xml:space="preserve"> / CH</tspan></text><text class="cls-30" transform="translate(294.77 254.59) scale(0.58)">4</text><circle class="cls-20" cx="261.8" cy="248.64" r="1.61"/><text class="cls-10" transform="translate(13.67 269.26)">530</text><text class="cls-30" transform="translate(21.83 244.32)">Pyruvate / <tspan class="cls-44" x="33.55" y="0">Glucose</tspan></text><circle class="cls-20" cx="17.62" cy="242.83" r="1.61"/><text class="cls-47" transform="translate(21.83 263.68)">Pyruvate<tspan class="cls-63" x="27.7" y="0" xml:space="preserve"> / Lactate</tspan></text><circle class="cls-20" cx="17.62" cy="262.07" r="1.61"/><text class="cls-47" transform="translate(351.19 244.34)">CO</text><text class="cls-47" transform="translate(361.72 246.68) scale(0.58)">2</text><text class="cls-47" transform="translate(364 244.34)"> <tspan class="cls-64" x="1.95" y="0">/</tspan><tspan class="cls-65" x="3.9" y="0"> </tspan><tspan class="cls-63" x="5.47" y="0">Acetate</tspan></text><circle class="cls-20" cx="346.99" cy="243.13" r="1.61"/><text class="cls-43" transform="translate(351.26 280.8)">O</text><text class="cls-43" transform="translate(356.73 283.14) scale(0.58)">2</text><text class="cls-8" transform="translate(359 280.8)"><tspan xml:space="preserve">  / 2 H</tspan></text><text class="cls-8" transform="translate(377.74 283.14) scale(0.58)">2</text><text class="cls-8" transform="translate(380.01 280.8)">O</text><circle class="cls-20" cx="347.1" cy="278.73" r="1.61"/><text class="cls-10" transform="translate(343.62 285.74)">382</text><text class="cls-10" transform="translate(352.63 253.18)">Energy must be spent <tspan x="0" y="6.32">to fix carbon dioxide</tspan></text><text class="cls-10" transform="translate(422.7 294.71)">In phototroph<tspan class="cls-24" x="31.04" y="0">y</tspan><tspan x="33.29" y="0">, light increases the potential for an electron </tspan><tspan x="0" y="6.32">to reduce other compounds. In this case, with light, electrons </tspan><tspan x="0" y="12.64">from sulfide can be used to fix carbon dioxide without spending </tspan><tspan x="0" y="18.96">energ</tspan><tspan class="cls-24" x="13.47" y="18.96">y</tspan><tspan x="15.72" y="18.96">.</tspan><tspan class="cls-18" x="17.18" y="18.96"> </tspan><tspan x="18.55" y="18.96">This also allows di</tspan><tspan class="cls-18" x="61.29" y="18.96">f</tspan><tspan x="62.66" y="18.96">ferent molecules to serve as electron </tspan><tspan x="0" y="25.28">donors.</tspan><tspan class="cls-66" x="17.57" y="25.28"> </tspan><tspan x="18.94" y="25.28">The evolution of photosystem II in cyanobacteria allowed </tspan><tspan x="0" y="31.6">water to be oxidized to oxygen.</tspan></text><text class="cls-10" transform="translate(258.1 264.8)">The small di<tspan class="cls-18" x="28.39" y="0">f</tspan><tspan x="29.76" y="0">ference in redox</tspan><tspan x="0" y="6.32">potentials provides little energ</tspan><tspan class="cls-24" x="69.68" y="6.32">y</tspan><tspan x="71.93" y="6.32">. </tspan></text><text class="cls-10" transform="translate(221.56 307.08)">Denitrification involves several electron<tspan x="0" y="6.32">acceptors with varying redox potentials.</tspan></text><text class="cls-10" transform="translate(102.64 256.45)">Oxygen is an excellent <tspan x="0" y="6.32">electron accepto</tspan><tspan class="cls-67" x="38.65" y="6.32">r</tspan><tspan class="cls-68" x="40.11" y="6.32">. Multicellular </tspan><tspan x="0" y="12.64">life almost always needs oxygen.</tspan></text><text class="cls-10" transform="translate(15.08 280.6)">The electron acceptor <tspan x="0" y="6.32">in fermentation is the </tspan><tspan x="0" y="12.64">partially oxidized electron </tspan><tspan x="0" y="18.96">dono</tspan><tspan class="cls-69" x="11.72" y="18.96">r</tspan><tspan x="13.18" y="18.96">. While often a back-up</tspan><tspan x="0" y="25.28">metabolism, many microbes use </tspan><tspan x="0" y="31.6">only fermentation for energ</tspan><tspan class="cls-24" x="62.95" y="31.6">y</tspan><tspan x="65.19" y="31.6">.</tspan></text><text x="-10.87" y="-13.54"></text><circle class="cls-20" cx="347.1" cy="266.81" r="1.61"/><text class="cls-8" transform="translate(351.09 268.82)">NO</text><text class="cls-8" transform="translate(361.63 271.15) scale(0.58)"><tspan class="cls-23">3</tspan><tspan x="3.91" y="-8.02">-</tspan></text><text class="cls-8" transform="translate(365.27 268.82)"><tspan xml:space="preserve"> / </tspan><tspan class="cls-70" x="5.85" y="0">NO</tspan></text><text class="cls-46" transform="translate(381.65 271.15) scale(0.58)">2<tspan x="3.91" y="-8.02">-</tspan></text><text class="cls-10" transform="translate(333.54 244.32)">-713</text><text class="cls-30" transform="translate(188.37 243.7)">CO</text><text class="cls-30" transform="translate(198.89 246.04) scale(0.58)">2</text><text class="cls-30" transform="translate(201.17 243.7)"><tspan xml:space="preserve">  / </tspan><tspan class="cls-44" x="7.8" y="0">Glucose</tspan></text><circle class="cls-20" cx="184.16" cy="242.09" r="1.61"/><text class="cls-43" transform="translate(103.32 287.08)">O</text><text class="cls-43" transform="translate(108.78 289.42) scale(0.58)">2</text><text class="cls-8" transform="translate(111.05 287.08)"><tspan xml:space="preserve">  / 2 H</tspan></text><text class="cls-8" transform="translate(129.79 289.42) scale(0.58)">2</text><text class="cls-8" transform="translate(132.06 287.08)">O</text><text class="cls-10" transform="translate(95.28 293.71)">1315</text><circle class="cls-20" cx="99.4" cy="285.47" r="1.61"/><text class="cls-30" transform="translate(103.32 243.83)">CO</text><text class="cls-30" transform="translate(113.85 246.17) scale(0.58)">2</text><text class="cls-30" transform="translate(116.12 243.83)"><tspan xml:space="preserve">  / </tspan><tspan class="cls-44" x="7.8" y="0">Glucose</tspan></text><circle class="cls-20" cx="99.11" cy="242.22" r="1.61"/><line class="cls-71" x1="99.11" y1="246.78" x2="99.11" y2="278.98"/><polygon class="cls-71" points="98.67 278.6 99.56 278.6 99.11 279.5 98.67 278.6"/><line class="cls-71" x1="17.62" y1="246.51" x2="17.62" y2="256.7"/><polygon class="cls-71" points="17.18 256.33 18.07 256.33 17.62 257.23 17.18 256.33"/><line class="cls-71" x1="347.1" y1="263.4" x2="347.1" y2="247.21"/><polygon class="cls-71" points="347.54 247.59 346.66 247.59 347.1 246.69 347.54 247.59"/><line class="cls-71" x1="347.1" y1="270.68" x2="347.1" y2="274.86"/><polygon class="cls-71" points="346.66 274.49 347.54 274.49 347.1 275.39 346.66 274.49"/><text class="cls-15" transform="translate(483.08 251.25)">e-</text><line class="cls-71" x1="481.02" y1="248.1" x2="481.02" y2="252.28"/><polygon class="cls-71" points="480.58 251.91 481.47 251.91 481.02 252.81 480.58 251.91"/><text class="cls-15" transform="translate(441.81 269.47)">e-</text><text class="cls-72" transform="translate(457.57 255.31)">light</text><line class="cls-71" x1="447.96" y1="259.9" x2="447.96" y2="275.09"/><polygon class="cls-71" points="447.51 274.72 448.4 274.72 447.96 275.62 447.51 274.72"/><line class="cls-73" x1="450.01" y1="275.45" x2="477.71" y2="247.75"/><polygon class="cls-74" points="477.76 248.33 477.13 247.7 478.08 247.38 477.76 248.33"/><line class="cls-71" x1="261.8" y1="246.12" x2="261.8" y2="246.3"/><polygon class="cls-71" points="261.36 245.93 262.25 245.93 261.8 246.83 261.36 245.93"/><polyline class="cls-71" points="184.42 245.28 191.17 250.03 191.17 269.18"/><polygon class="cls-71" points="190.72 268.81 191.61 268.81 191.17 269.71 190.72 268.81"/><polyline class="cls-71" points="184.42 245.28 187.79 249.99 187.79 294.19"/><polygon class="cls-71" points="187.35 293.82 188.24 293.82 187.79 294.72 187.35 293.82"/><line class="cls-71" x1="184.42" y1="245.28" x2="184.42" y2="299.2"/><polygon class="cls-71" points="183.97 298.82 184.86 298.82 184.42 299.73 183.97 298.82"/><polyline class="cls-71" points="184.42 245.28 194.54 250.13 194.54 265.18"/><polygon class="cls-71" points="194.1 264.8 194.99 264.8 194.54 265.7 194.1 264.8"/><text class="cls-8" transform="translate(436.8 147.03)">ONOO</text><text class="cls-8" transform="translate(458.26 144.7) scale(0.58)">−</text><text class="cls-8" transform="translate(460.65 147.03)">/ NO</text><text class="cls-8" transform="translate(475.09 149.37) scale(0.58)">2<tspan x="3.91" y="-8.02">−</tspan></text><text class="cls-8" transform="translate(479.75 147.03)"> </text></svg>